<svg xmlns="http://www.w3.org/2000/svg" width="200" height="200" class="icon" viewBox="0 0 1024 1024"><path d="M510.28 63.621c-171.412 0-310.356 135.772-310.356 303.29 0 167.496 207.318 389.554 310.356 592.103 107.445-202.55 310.355-424.606 310.355-592.102 0-167.519-138.943-303.291-310.355-303.291zm0 476.277c-96.42 0-174.578-76.725-174.578-171.451 0-94.693 78.159-171.457 174.578-171.457 96.414 0 174.578 76.765 174.578 171.457-.001 94.726-78.165 171.451-174.578 171.451zm0-247.646c-42.863 0-77.6 34.122-77.6 76.196 0 42.095 34.737 76.2 77.6 76.2 42.84 0 77.578-34.105 77.578-76.2-.001-42.074-34.738-76.196-77.578-76.196zm0 0"/></svg>