<svg xmlns="http://www.w3.org/2000/svg" width="200" height="200" class="icon" viewBox="0 0 1024 1024"><path d="M512 341.333c-93.867 0-170.667 76.8-170.667 170.667S418.133 682.667 512 682.667 682.667 605.867 682.667 512 605.867 341.333 512 341.333zm379.733 128c-21.333-179.2-162.133-320-337.066-337.066v-89.6h-85.334v89.6c-179.2 17.066-320 157.866-337.066 337.066h-89.6v85.334h89.6c21.333 179.2 162.133 320 337.066 337.066v89.6h85.334v-89.6c179.2-21.333 320-162.133 337.066-337.066h89.6v-85.334h-89.6zM512 810.667C345.6 810.667 213.333 678.4 213.333 512c0-166.4 132.267-298.667 298.667-298.667S810.667 345.6 810.667 512c0 166.4-132.267 298.667-298.667 298.667z"/></svg>