<svg xmlns="http://www.w3.org/2000/svg" width="200" height="200" class="icon" viewBox="0 0 1024 1024"><path d="M230.87 665.67c-94.64-65.89-146.75-153-146.75-245.3 0-94.48 54.25-183.04 152.74-249.38 16.49-11.11 20.87-33.49 9.75-49.98-11.1-16.49-33.48-20.84-49.98-9.75C79.36 190.23 12.1 302.91 12.1 420.37c0 116.55 63.08 224.65 177.62 304.4a35.777 35.777 0 0 0 20.54 6.46c11.39 0 22.59-5.38 29.59-15.44 11.37-16.32 7.34-38.77-8.98-50.12z"/><path d="M290.38 556.97c-46.45-37.78-73.1-91.29-73.1-146.83 0-57.4 28.17-112.13 77.27-150.15 15.73-12.17 18.61-34.79 6.44-50.51-12.17-15.74-34.79-18.61-50.51-6.44-66.88 51.76-105.22 127.25-105.22 207.1 0 77.31 36.34 151.19 99.68 202.7a35.805 35.805 0 0 0 22.69 8.08c10.47 0 20.84-4.54 27.96-13.29 12.56-15.44 10.21-38.12-5.21-50.66z"/><path d="M322.38 525.83c6.68 5.45 14.73 8.1 22.73 8.1 10.46 0 20.82-4.52 27.93-13.26 12.57-15.41 10.26-38.1-5.16-50.66-22.33-18.2-34.63-41.58-34.63-65.82 0-24.33 12.39-47.79 34.9-66.04 15.45-12.52 17.83-35.19 5.3-50.64-12.53-15.45-35.18-17.85-50.64-5.3-39.71 32.18-61.58 75.5-61.58 121.98.01 46.31 21.72 89.5 61.15 121.64zm505.19-414.58c-16.48-11.12-38.87-6.74-49.98 9.75-11.11 16.49-6.74 38.87 9.75 49.98 98.49 66.35 152.74 154.91 152.74 249.38 0 92.3-52.12 179.4-146.75 245.29-16.33 11.36-20.35 33.81-8.98 50.12 7 10.06 18.19 15.44 29.59 15.44 7.09 0 14.27-2.09 20.54-6.46 114.55-79.74 177.62-187.84 177.62-304.4 0-117.44-67.26-230.12-184.53-309.1z"/><path d="M878.94 410.14c0-79.85-38.34-155.34-105.22-207.09-15.7-12.16-38.33-9.28-50.51 6.44-12.18 15.72-9.3 38.34 6.44 50.51 49.1 38.01 77.27 92.74 77.27 150.15 0 55.54-26.64 109.05-73.1 146.83-15.43 12.54-17.77 35.22-5.22 50.65 7.12 8.76 17.49 13.29 27.96 13.29 7.98 0 16.01-2.64 22.69-8.08 63.35-51.51 99.69-125.39 99.69-202.7z"/><path d="M701.39 282.22c-15.46-12.55-38.13-10.15-50.64 5.3-12.53 15.45-10.15 38.12 5.3 50.64 22.51 18.25 34.9 41.71 34.9 66.04 0 24.24-12.3 47.61-34.63 65.82-15.41 12.57-17.72 35.25-5.16 50.66 7.12 8.73 17.48 13.26 27.93 13.26 7.99 0 16.05-2.65 22.73-8.1 39.43-32.14 61.14-75.34 61.14-121.64 0-46.48-21.86-89.81-61.57-121.98z"/><path d="M627.34 741.92h-83.56V517.9c48.1-13.87 83.59-57.79 83.59-110.29 0-63.56-51.71-115.26-115.26-115.26s-115.26 51.71-115.26 115.26c0 49.31 31.28 91.16 74.92 107.59v226.72h-93.12c-39.07 0-70.86 31.2-70.86 69.55v49.14c0 32.28 26.27 58.55 58.56 58.55h273.3c32.28 0 58.55-26.27 58.55-58.55v-49.14c-.01-38.35-31.79-69.55-70.86-69.55zM512.1 364.36c23.84 0 43.24 19.4 43.24 43.24 0 23.85-19.4 43.25-43.24 43.25s-43.24-19.4-43.24-43.25c0-23.84 19.4-43.24 43.24-43.24zm114.07 482.77H379.79v-33.2h246.37v33.2z"/></svg>