<svg xmlns="http://www.w3.org/2000/svg" width="200" height="200" class="icon" viewBox="0 0 1024 1024"><path d="M853.333 512H682.667c-46.934 0-85.334 38.4-85.334 85.333v256c0 46.934 38.4 85.334 85.334 85.334h170.666c46.934 0 85.334-38.4 85.334-85.334v-256c0-46.933-38.4-85.333-85.334-85.333zm-512-426.667H170.667c-46.934 0-85.334 38.4-85.334 85.334v256c0 46.933 38.4 85.333 85.334 85.333h170.666c46.934 0 85.334-38.4 85.334-85.333v-256c0-46.934-38.4-85.334-85.334-85.334zm512 0H682.667c-46.934 0-85.334 38.4-85.334 85.334V256c0 46.933 38.4 85.333 85.334 85.333h170.666c46.934 0 85.334-38.4 85.334-85.333v-85.333c0-46.934-38.4-85.334-85.334-85.334zm-512 597.334H170.667c-46.934 0-85.334 38.4-85.334 85.333v85.333c0 46.934 38.4 85.334 85.334 85.334h170.666c46.934 0 85.334-38.4 85.334-85.334V768c0-46.933-38.4-85.333-85.334-85.333z"/></svg>