<svg xmlns="http://www.w3.org/2000/svg" width="200" height="200" class="icon" viewBox="0 0 1024 1024"><path d="M329.143 658.286v73.143H256v-73.143h73.143zm0-438.857v73.142H256V219.43h73.143zm438.857 0v73.142h-73.143V219.43H768zM182.857 804h219.429V585.143H182.857V804zm0-438.286h219.429V146.286H182.857v219.428zm438.857 0h219.429V146.286H621.714v219.428zM475.43 512v365.714H109.714V512H475.43zM768 804.571v73.143h-73.143v-73.143H768zm146.286 0v73.143h-73.143v-73.143h73.143zm0-292.571v219.429H694.857v-73.143h-73.143v219.428h-73.143V512H768v73.143h73.143V512h73.143zM475.429 73.143v365.714H109.714V73.143H475.43zm438.857 0v365.714H548.57V73.143h365.715z"/></svg>