<svg xmlns="http://www.w3.org/2000/svg" width="200" height="200" class="icon" viewBox="0 0 1024 1024"><path d="M163.797 249.941c125.44-167.082 385.28-215.68 570.198-100.693 182.613 113.493 249.77 331.776 174.933 536.619C838.315 879.232 652.245 955.86 518.144 858.58c-50.219-36.437-69.717-82.133-79.104-156.33l-4.523-42.155-1.92-16.939c-5.248-39.85-13.269-57.728-30.08-67.072-22.826-12.714-38.058-13.013-68.053-1.408l-14.976 6.23-7.637 3.328c-43.264 18.773-72.022 25.386-108.416 17.749l-8.534-2.005-6.997-2.006C68.907 561.11 51.285 399.701 163.797 249.941zm41.984 286.55 5.248 1.536 5.718 1.322c18.73 3.712 34.73.64 61.312-10.325l25.685-10.965c51.285-21.035 84.693-23.083 129.963 2.133 39.125 21.803 54.4 55.381 62.165 113.493l2.261 19.584 2.347 22.656 2.005 18.048c7.339 58.07 20.694 89.174 53.248 112.811 97.067 70.4 236.118 13.141 293.12-142.89 64.683-177.153 7.424-363.265-148.65-460.331-156.8-97.451-379.691-55.766-485.248 84.778-88.534 117.888-77.654 225.28-9.174 248.15zm478.934-85.078a53.333 53.333 0 1 1 102.997-27.648 53.333 53.333 0 0 1-102.997 27.648zm21.077 148.822a53.333 53.333 0 1 1 103.04-27.606 53.333 53.333 0 0 1-103.04 27.606zM600.32 323.285a53.333 53.333 0 1 1 103.04-27.605 53.333 53.333 0 0 1-103.04 27.605zM599.125 707.2a53.333 53.333 0 1 1 102.998-27.605A53.333 53.333 0 0 1 599.125 707.2zM449.92 281.813a53.333 53.333 0 1 1 103.04-27.605 53.333 53.333 0 0 1-103.04 27.605z"/></svg>