<?xml version="1.0" standalone="no"?><!DOCTYPE svg PUBLIC "-//W3C//DTD SVG 1.1//EN" "http://www.w3.org/Graphics/SVG/1.1/DTD/svg11.dtd"><svg t="1725414843817" class="icon" viewBox="0 0 1024 1024" version="1.1" xmlns="http://www.w3.org/2000/svg" p-id="4276" xmlns:xlink="http://www.w3.org/1999/xlink" width="200" height="200"><path d="M213.07392 645.12L362.496 386.17088l-8.6016-14.86848a184.32 184.32 0 1 1 326.61504-169.61536 31.37536 31.37536 0 0 1-12.288 39.936 30.72 30.72 0 0 1-43.54048-14.29504 122.88 122.88 0 1 0-217.7024 113.0496l53.12512 91.87328a30.72 30.72 0 0 1 0 30.72L319.488 706.56a61.44 61.44 0 0 1-106.41408-61.44zM754.4832 491.52h-47.34976L565.248 245.76a61.44 61.44 0 0 0-106.41408 61.44l132.99712 230.4a30.80192 30.80192 0 0 0 26.58304 15.36h136.8064c68.73088 0 126.5664 56.23808 125.41952 124.928a122.88 122.88 0 0 1-121.6512 120.832 31.62112 31.62112 0 0 0-31.82592 28.13952 30.72 30.72 0 0 0 30.72 33.30048 184.48384 184.48384 0 0 0 184.32-187.88352C940.15488 571.35104 855.61344 491.52 754.64704 491.52h-0.12288z m64.7168 181.37088C817.68448 639.7952 789.17632 614.4 756.1216 614.4h-294.74816a30.72 30.72 0 0 0-26.624 15.36L372.69504 737.28a122.88 122.88 0 1 1-205.33248-134.38976 31.49824 31.49824 0 0 0-3.52256-42.22976 30.76096 30.76096 0 0 0-45.01504 4.5056 184.32 184.32 0 1 0 306.95424 202.87488l17.77664-30.76096H757.76a61.44 61.44 0 0 0 61.44-64.38912z" p-id="4277"></path></svg>