<svg xmlns="http://www.w3.org/2000/svg" width="200" height="200" class="icon" viewBox="0 0 1024 1024"><path d="M905 896q-22 0-66.25-1.75T772 892.5q-22 0-66 1.75T640 896q-12 0-18.5-10.25T615 863q0-15.5 8.5-23t19.5-8.5 25.5-3.5 22.5-7.5q16.5-10.5 16.5-70L707 555q0-10.5-.5-15.5-6.5-2-25-2H344q-19 0-25.5 2-.5 5-.5 15.5l-.5 185.5q0 71 18.5 82 8 5 24 6.5t28.5 1.75 22.5 7.5T421 861q0 13-6.25 24t-18.25 11q-23.5 0-69.75-1.75t-69.25-1.75q-21.5 0-64 1.75T130 896q-11.5 0-17.75-10.5T106 863q0-15 7.75-22.5t18-8.75T155.5 828t21-7.5Q193 809 193 749l-.5-28.5V314q0-1.5 2.5-13t0-18.25-.75-19.25-1.75-21-3.25-18.25-5.5-15.75-8-9q-7.5-5-22.5-6t-26.5-1-20.5-7-9-22.5q0-13 6-24t18-11q23 0 69.25 1.75t69.25 1.75q21 0 63.25-1.75t63.25-1.75q12.5 0 18.75 11t6.25 24q0 15-8.5 21.75T383.5 192t-24.75 2-21.5 6.5q-17.5 10.5-17.5 80l.5 160q0 10.5.5 16 6.5 1.5 19.5 1.5h349.5q12.5 0 19-1.5.5-5.5.5-16l.5-160q0-69.5-17.5-80-9-5.5-29.25-6.25t-33-6.5T617.25 163q0-13 6.25-24t18.75-11q22 0 66 1.75t66 1.75q21.5 0 64.5-1.75t64.5-1.75q12.5 0 18.75 11t6.25 24q0 15-8.75 22t-20 7.25-25.75 1.5-22 6.25q-17.5 11.5-17.5 80.5l.5 471.5q0 59.5 17 70 8 5 23 6.75T901.5 831t20.75 7.75 9 22.25q0 13-6 24t-18 11z"/></svg>