<svg xmlns="http://www.w3.org/2000/svg" width="200" height="200" class="icon" viewBox="0 0 1024 1024"><path d="M1024 716.8v204.8A102.4 102.4 0 0 1 921.6 1024H716.8V921.6a102.4 102.4 0 0 0-102.4-102.4A102.4 102.4 0 0 0 512 921.6V1024H307.2a102.4 102.4 0 0 1-102.4-102.4V716.8H102.4A102.4 102.4 0 0 1 0 614.4 102.4 102.4 0 0 1 102.4 512h102.4V307.2c0-56.32 46.08-102.4 102.4-102.4H512V102.4A102.4 102.4 0 0 1 614.4 0a102.4 102.4 0 0 1 102.4 102.4v102.4h204.8A102.4 102.4 0 0 1 1024 307.2V512H921.6a102.4 102.4 0 0 0-102.4 102.4 102.4 102.4 0 0 0 102.4 102.4H1024z"/></svg>