<svg xmlns="http://www.w3.org/2000/svg" width="200" height="200" class="icon" viewBox="0 0 1024 1024"><path d="M218.965 77.369a11.833 11.833 0 0 1 4.267 4.267L310.67 232.22a11.833 11.833 0 0 1-10.24 17.807h-51.484v523.946h51.484a11.833 11.833 0 0 1 10.24 17.807l-87.438 150.584a11.833 11.833 0 0 1-20.48 0L115.314 791.78a11.833 11.833 0 0 1 10.24-17.807h51.427V250.027h-51.427a11.833 11.833 0 0 1-10.24-17.807l87.438-150.584a11.833 11.833 0 0 1 16.213-4.324zm665.031 760.604a36.01 36.01 0 0 1 0 72.022H429a36.01 36.01 0 1 1 0-72.022h454.997zm0-361.984a36.01 36.01 0 1 1 0 72.022H429a36.01 36.01 0 1 1 0-72.022h454.997zm0-347.989a36.01 36.01 0 1 1 0 72.021H429A36.01 36.01 0 1 1 429 128h454.997z"/></svg>